<?xml version="1.0" encoding="utf-8"?>
<!-- Generator: Adobe Illustrator 22.1.0, SVG Export Plug-In . SVG Version: 6.00 Build 0)  -->
<svg version="1.1" id="Layer_5" xmlns="http://www.w3.org/2000/svg" xmlns:xlink="http://www.w3.org/1999/xlink" x="0px" y="0px"
	 viewBox="0 0 284.8 101.3" style="enable-background:new 0 0 284.8 101.3;" xml:space="preserve">
<style type="text/css">
	.st0{fill:#FFFFFF;}
</style>
<g>
	<path class="st0" d="M80.3,60.7c-0.6,0.6-1.5,0.9-2.7,0.9c-1.5,0-2.9-0.8-2.9-2.8v-6.3h-2.1v-1.4h2.1v-2.5l1.7-0.5v2.9h3.8v1.4
		h-3.8v6.1c0,1,0.6,1.5,1.6,1.5c0.7,0,1.3-0.3,1.8-0.8L80.3,60.7z"/>
	<path class="st0" d="M91.4,54.8v6.6h-1.7v-6c0-2.3-1.1-3.1-2.5-3.1c-1.5,0-3.2,1-3.2,3.6v5.5h-1.7V46.4H84v6.3
		c0.7-1.2,2-1.8,3.4-1.8C89.6,50.9,91.4,52.2,91.4,54.8z"/>
	<path class="st0" d="M102.9,56.9h-7.8c0.2,2.1,1.5,3.3,3.4,3.3c1.5,0,2.5-0.5,2.9-1.5l1.4,0.7c-0.8,1.4-2.1,2.3-4.3,2.3
		c-3.1,0-5-2-5-5.4c0-3.3,1.8-5.4,4.9-5.4c3,0,4.6,2.2,4.6,4.8C103,56.2,102.9,56.6,102.9,56.9z M95.1,55.4h6.3
		c-0.2-1.9-1.3-3.1-3-3.1C96.5,52.4,95.4,53.5,95.1,55.4z"/>
	<path class="st0" d="M121.4,56.3c0,3.4-1.8,5.4-4.7,5.4c-1.6,0-2.9-0.8-3.5-2l-0.1,1.8h-1.4V46.4h1.7v6.4c0.6-1.1,1.9-1.8,3.4-1.8
		C119.5,50.9,121.4,52.9,121.4,56.3z M119.7,56.3c0-2.4-1.2-3.9-3.2-3.9c-2,0-3.2,1.5-3.2,3.8v0.2c0,2.3,1.3,3.8,3.2,3.8
		C118.5,60.2,119.7,58.7,119.7,56.3z"/>
	<path class="st0" d="M129.6,51.1l-0.3,1.6c-0.3-0.2-0.8-0.3-1.3-0.3c-1.2,0-2.7,1.1-2.7,3.4v5.6h-1.7V51.1h1.3l0.2,1.7
		c0.6-1.3,1.7-1.9,3.3-1.9C128.8,50.9,129.3,51,129.6,51.1z"/>
	<path class="st0" d="M131,47.9c0-0.7,0.5-1.2,1.2-1.2c0.7,0,1.2,0.5,1.2,1.2c0,0.7-0.5,1.2-1.2,1.2C131.5,49.1,131,48.6,131,47.9z
		 M133.1,61.5h-1.7V51.1h1.7V61.5z"/>
	<path class="st0" d="M142.6,60.7c-0.6,0.6-1.5,0.9-2.7,0.9c-1.5,0-2.9-0.8-2.9-2.8v-6.3H135v-1.4h2.1v-2.5l1.7-0.5v2.9h3.8v1.4
		h-3.8v6.1c0,1,0.6,1.5,1.6,1.5c0.7,0,1.3-0.3,1.8-0.8L142.6,60.7z"/>
	<path class="st0" d="M143.9,47.9c0-0.7,0.5-1.2,1.2-1.2c0.7,0,1.2,0.5,1.2,1.2c0,0.7-0.5,1.2-1.2,1.2
		C144.4,49.1,143.9,48.6,143.9,47.9z M146,61.5h-1.7V51.1h1.7V61.5z"/>
	<path class="st0" d="M148.1,59.3l1.3-0.9c0.5,1.3,1.8,1.8,3.3,1.8c1.7,0,2.5-0.7,2.5-1.5c0-0.8-0.6-1.2-2.7-1.6
		c-2.9-0.5-4-1.3-4-3.1c0-1.7,1.6-3.1,4.1-3.1c2.2,0,3.5,0.8,4.1,2.5l-1.4,0.8c-0.5-1.4-1.4-1.9-2.7-1.9c-1.4,0-2.4,0.7-2.4,1.5
		c0,0.9,0.7,1.3,2.8,1.7c2.9,0.5,3.9,1.3,3.9,3c0,1.8-1.7,3.1-4.3,3.1C150.7,61.7,148.9,60.9,148.1,59.3z"/>
	<path class="st0" d="M168.2,54.8v6.6h-1.7v-6c0-2.3-1.1-3.1-2.5-3.1c-1.5,0-3.2,1-3.2,3.6v5.5h-1.7V46.4h1.7v6.3
		c0.7-1.2,2-1.8,3.4-1.8C166.4,50.9,168.2,52.2,168.2,54.8z"/>
</g>
<g>
	<path class="st0" d="M83.8,77.1c0,3.4-1.8,5.4-4.7,5.4c-1.6,0-2.8-0.7-3.4-1.8v6H74V71.9h1.4l0.1,1.8c0.6-1.2,1.9-2,3.5-2
		C81.9,71.7,83.8,73.7,83.8,77.1z M82.1,77.1c0-2.4-1.2-3.9-3.2-3.9c-2,0-3.2,1.5-3.2,3.8v0.2c0,2.3,1.3,3.8,3.2,3.8
		C80.9,81,82.1,79.5,82.1,77.1z"/>
	<path class="st0" d="M85.3,80.1l1.3-0.9c0.5,1.3,1.8,1.8,3.3,1.8c1.7,0,2.5-0.7,2.5-1.5c0-0.8-0.6-1.2-2.7-1.6
		c-2.9-0.5-4-1.3-4-3.1c0-1.7,1.6-3.1,4.1-3.1c2.2,0,3.5,0.8,4.1,2.5L92.4,75c-0.5-1.4-1.4-1.9-2.7-1.9c-1.4,0-2.4,0.7-2.4,1.5
		c0,0.9,0.7,1.3,2.8,1.7c2.9,0.5,3.9,1.3,3.9,3c0,1.8-1.7,3.1-4.3,3.1C87.8,82.4,86,81.7,85.3,80.1z"/>
	<path class="st0" d="M100.3,84c-0.8,2-1.7,2.7-3.3,2.7c-1,0-1.7-0.2-2.3-0.9l0.6-1.4c0.5,0.7,1.1,0.8,1.7,0.8
		c0.7,0,1.4-0.3,1.9-1.7l0.5-1.3l-4.3-10.3H97l2.6,6.7l0.6,1.8l0.7-2l2.4-6.5h1.8L100.3,84z"/>
	<path class="st0" d="M115,74.4l-1.6,0.7c-0.4-1.3-1.3-2-2.8-2c-2.1,0-3.3,1.5-3.3,3.9c0,2.5,1.2,3.9,3.3,3.9c1.6,0,2.6-0.8,2.9-2.1
		l1.5,0.5c-0.7,1.9-2.2,3-4.4,3c-3.1,0-5-2-5-5.4c0-3.3,1.9-5.4,5-5.4C112.8,71.7,114.2,72.7,115,74.4z"/>
	<path class="st0" d="M126.2,75.6v6.6h-1.7v-6c0-2.3-1.1-3.1-2.5-3.1c-1.5,0-3.2,1-3.2,3.6v5.5h-1.7V67.1h1.7v6.3
		c0.7-1.2,2-1.8,3.4-1.8C124.4,71.7,126.2,72.9,126.2,75.6z"/>
	<path class="st0" d="M138.5,77.1c0,3.3-1.9,5.4-5,5.4c-3.1,0-5-2-5-5.4c0-3.3,1.9-5.4,5-5.4C136.7,71.7,138.5,73.7,138.5,77.1z
		 M130.2,77.1c0,2.5,1.3,3.9,3.3,3.9c2.1,0,3.3-1.5,3.3-3.9c0-2.5-1.3-3.9-3.3-3.9C131.4,73.1,130.2,74.6,130.2,77.1z"/>
	<path class="st0" d="M142.5,79.5c0,1.1,0.3,1.4,1.1,1.4c0.6,0,0.9-0.1,1.5-0.3l-0.3,1.6c-0.4,0.2-1,0.3-1.5,0.3
		c-1.7,0-2.5-0.9-2.5-2.8V67.1h1.7V79.5z"/>
	<path class="st0" d="M155.7,77.1c0,3.3-1.9,5.4-5,5.4c-3.1,0-5-2-5-5.4c0-3.3,1.9-5.4,5-5.4C153.8,71.7,155.7,73.7,155.7,77.1z
		 M147.4,77.1c0,2.5,1.3,3.9,3.3,3.9c2.1,0,3.3-1.5,3.3-3.9c0-2.5-1.3-3.9-3.3-3.9C148.6,73.1,147.4,74.6,147.4,77.1z"/>
	<path class="st0" d="M167,83.4c0,2-2.3,3.3-5.1,3.3c-3.3,0-4.8-1.2-4.8-2.7c0-1,0.7-1.7,1.8-2c-0.8-0.4-1.4-1-1.4-1.9
		c0-1.1,0.6-1.7,1.6-2c-1-0.6-1.5-1.6-1.5-2.8c0-2,1.8-3.5,4.2-3.5c0.8,0,1.5,0.1,2.1,0.4c0.4-1.4,1.4-2.1,2.9-2.1l0.4,1.4
		c-1.4,0-2.2,0.4-2.5,1.1c0.8,0.6,1.3,1.5,1.3,2.6c0,2-1.8,3.5-4.2,3.5c-0.6,0-1.1-0.1-1.6-0.2c-0.8,0.2-1.2,0.6-1.2,1.3
		c0,0.7,0.6,1.1,1.4,1.1h3.4C165.8,80.9,167,81.9,167,83.4z M165.5,83.5c0-0.7-0.5-1.2-2-1.2h-2.8c-1.3,0-2,0.5-2,1.3
		c0,1,1.1,1.7,3.4,1.7C164.3,85.3,165.5,84.5,165.5,83.5z M159.3,75.2c0,1.3,1.1,2.2,2.5,2.2c1.4,0,2.5-0.9,2.5-2.2
		s-1.1-2.1-2.5-2.1C160.4,73,159.3,73.9,159.3,75.2z"/>
	<path class="st0" d="M168.5,68.7c0-0.7,0.5-1.2,1.2-1.2c0.7,0,1.2,0.5,1.2,1.2c0,0.7-0.5,1.2-1.2,1.2
		C169,69.9,168.5,69.4,168.5,68.7z M170.6,82.2H169V71.9h1.7V82.2z"/>
	<path class="st0" d="M182.3,74.4l-1.6,0.7c-0.4-1.3-1.3-2-2.8-2c-2.1,0-3.3,1.5-3.3,3.9c0,2.5,1.2,3.9,3.3,3.9
		c1.6,0,2.6-0.8,2.9-2.1l1.5,0.5c-0.7,1.9-2.2,3-4.4,3c-3.1,0-5-2-5-5.4c0-3.3,1.9-5.4,5-5.4C180.1,71.7,181.5,72.7,182.3,74.4z"/>
	<path class="st0" d="M193.8,80.9l-0.1,1.3c-0.3,0.1-0.7,0.2-1.2,0.2c-1,0-1.7-0.4-1.9-1.5c-0.7,1-2,1.5-3.3,1.5
		c-1.9,0-3.5-0.9-3.5-2.8c0-1.6,1.4-2.8,4-3.2l2.8-0.5v-0.6c0-1.4-0.9-2.3-2.4-2.3c-1.4,0-2.4,0.7-3,2l-1.2-0.9
		c0.5-1.5,2.2-2.5,4.2-2.5c2.4,0,4.1,1.1,4.1,3.5v5.1c0,0.5,0.2,0.7,0.8,0.7C193.3,81,193.6,81,193.8,80.9z M190.5,78.7v-1.4
		l-2.3,0.4c-1.8,0.3-2.8,0.9-2.8,1.9c0,0.9,0.7,1.3,1.9,1.3C189,81,190.5,80.1,190.5,78.7z"/>
	<path class="st0" d="M197,79.5c0,1.1,0.3,1.4,1.1,1.4c0.6,0,0.9-0.1,1.5-0.3l-0.3,1.6c-0.4,0.2-1,0.3-1.5,0.3
		c-1.7,0-2.5-0.9-2.5-2.8V67.1h1.7V79.5z"/>
	<path class="st0" d="M205.5,80.1l1.3-0.9c0.5,1.3,1.8,1.8,3.3,1.8c1.7,0,2.5-0.7,2.5-1.5c0-0.8-0.6-1.2-2.7-1.6
		c-2.9-0.5-4-1.3-4-3.1c0-1.7,1.6-3.1,4.1-3.1c2.2,0,3.5,0.8,4.1,2.5l-1.4,0.8c-0.5-1.4-1.4-1.9-2.7-1.9c-1.4,0-2.4,0.7-2.4,1.5
		c0,0.9,0.7,1.3,2.8,1.7c2.9,0.5,3.9,1.3,3.9,3c0,1.8-1.7,3.1-4.3,3.1C208.1,82.4,206.3,81.7,205.5,80.1z"/>
	<path class="st0" d="M225.9,77.1c0,3.3-1.9,5.4-5,5.4c-3.1,0-5-2-5-5.4c0-3.3,1.9-5.4,5-5.4C224.1,71.7,225.9,73.7,225.9,77.1z
		 M217.6,77.1c0,2.5,1.3,3.9,3.3,3.9c2.1,0,3.3-1.5,3.3-3.9c0-2.5-1.3-3.9-3.3-3.9C218.8,73.1,217.6,74.6,217.6,77.1z"/>
	<path class="st0" d="M237,74.4l-1.6,0.7c-0.4-1.3-1.3-2-2.8-2c-2.1,0-3.3,1.5-3.3,3.9c0,2.5,1.2,3.9,3.3,3.9c1.6,0,2.6-0.8,2.9-2.1
		l1.5,0.5c-0.7,1.9-2.2,3-4.4,3c-3.1,0-5-2-5-5.4c0-3.3,1.9-5.4,5-5.4C234.8,71.7,236.2,72.7,237,74.4z"/>
	<path class="st0" d="M238.8,68.7c0-0.7,0.5-1.2,1.2-1.2c0.7,0,1.2,0.5,1.2,1.2c0,0.7-0.5,1.2-1.2,1.2
		C239.3,69.9,238.8,69.4,238.8,68.7z M240.8,82.2h-1.7V71.9h1.7V82.2z"/>
	<path class="st0" d="M252.6,77.7h-7.8c0.2,2.1,1.5,3.3,3.4,3.3c1.5,0,2.5-0.5,2.9-1.5l1.4,0.7c-0.8,1.4-2.1,2.3-4.3,2.3
		c-3.1,0-5-2-5-5.4c0-3.3,1.8-5.4,4.9-5.4c3,0,4.6,2.2,4.6,4.8C252.7,77,252.7,77.4,252.6,77.7z M244.9,76.2h6.3
		c-0.2-1.9-1.3-3.1-3-3.1C246.3,73.1,245.1,74.3,244.9,76.2z"/>
	<path class="st0" d="M261.2,81.5c-0.6,0.6-1.5,0.9-2.7,0.9c-1.5,0-2.9-0.8-2.9-2.8v-6.3h-2.1v-1.4h2.1v-2.5l1.7-0.5v2.9h3.8v1.4
		h-3.8v6.1c0,1,0.6,1.5,1.6,1.5c0.7,0,1.3-0.3,1.8-0.8L261.2,81.5z"/>
	<path class="st0" d="M267.1,84c-0.8,2-1.7,2.7-3.3,2.7c-1,0-1.7-0.2-2.3-0.9l0.6-1.4c0.5,0.7,1.1,0.8,1.7,0.8
		c0.7,0,1.4-0.3,1.9-1.7l0.5-1.3l-4.3-10.3h1.9l2.6,6.7l0.6,1.8l0.7-2l2.4-6.5h1.8L267.1,84z"/>
</g>
<path class="st0" d="M11.4,89.4c0,0-0.1,0.1-0.1,0.2c0,0.1,0,0.2,0.1,0.4c0,0.1,0.1,0.2,0.1,0.4c0.2-0.3,0.4-0.6,0.7-0.9
	c0-0.1,0.1-0.5,0.1-0.5c0-0.1,0.1-0.2,0.1-0.3C11.9,88.9,11.6,89.1,11.4,89.4"/>
<g>
	<path class="st0" d="M35.1,9.1L35.1,9.1l0,0.1v0c0,0,0,0,0,0c-0.2,0-0.5,0-0.5,0c-0.3,0-0.6,0-0.9,0.1l0,0.3l0.6,0c0,0,0.6,0,0.6,0
		c0.1,0.1,0.4,0.2,0.7,0.3l0.4,0.1l0.1,0l0,0l0,0c0.1,0,0.2,0.1,0.3-0.1l0,0l0,0c0-0.5-0.4-0.6-0.7-0.6c0,0,0,0,0,0
		c0.8-0.4,1.5-0.6,2.2-0.5c0.4,0,0.6,0.2,0.8,0.5c0.2,0.3,0.3,0.7,0.3,1c0,0.3-0.1,0.6-0.1,0.7c-1,1-2.1,0.9-3.3,0.7
		c-0.8-0.1-1.7-0.2-2.5,0.1l0,0.3c0.3,0,0.6,0.1,0.9,0.1c-1.2,1.4-2.8,1.9-4.3,1.5l-0.1,0l-0.1,0.4l0.1,0l0.4,0.1
		c0.2,0.1,0.5,0.2,0.7,0.1c0,0-0.1,0.1-0.1,0.1c-0.4,0.4-1,1-1.6,0.9l-0.4-0.1c-0.9-0.1-1.8-0.3-2.5,0.5c0,0-0.2,0.5-0.2,0.5l0,0.1
		l0.1,0c0.2,0.1,0.4-0.1,0.4-0.2c0,0,0.1-0.1,0.1-0.1c0,0.7,0.5,1.1,1,1.5l0.4,0.3l0.1,0l0.1,0l0.4,0.1l0.3-0.3l-0.1,0
		c-0.1-0.2-0.4-0.3-0.6-0.4c-0.3-0.1-0.5-0.2-0.6-0.4c0,0,0-0.1,0-0.1c0-0.1,0-0.2,0.1-0.3c0,0,0-0.3,0-0.3v0c0-0.1,0-0.2,0.1-0.3
		c0.1,0,0.2,0,0.2,0c0,0,0,0,0,0c0,0.3,0.2,0.4,0.4,0.5l0.2,0.1h0c0.2,0,0.3-0.2,0.3-0.4c0,0,0-0.1,0-0.1l-0.1,0L28.8,16l-0.1,0l0,0
		c0,0,0,0,0,0c1.1,0.2,2.2,0,3-0.7l0,0l0-0.1l0.1-0.2c0.1-0.1,0.2-0.2,0.2-0.4c0,0,0-0.1,0-0.1c0.2-0.1,0.7-0.2,0.7-0.2
		c1-0.2,2.2-0.5,2.2-1.7l0-0.1l-0.1-0.1c0.1,0,0.2,0.1,0.4,0.1c0.9,0.2,1.8,0.4,2.7,0.3c0,0.2,0,0.5,0,0.5l0,0.6c0,0.1,0,0.2,0,0.3
		c0,0.4-0.1,0.7-0.2,1c-0.1,0.3-0.2,0.5-0.2,0.8c0,0.1,0,0.2,0,0.4c0,0.2,0,0.5,0,0.7c0,1.3,0.2,3,0.3,3.3c0,0.1,0.1,0.2,0.3,0.2
		c0.2,0,0.3-0.3,0.3-0.5c0-0.1,0-0.1,0-0.2c-0.1-0.2-0.1-0.7-0.1-1.4c0-0.6,0-1.4,0.1-2.2l0.1-0.3l0.1-0.3l0.1-0.8
		c0,0,0.1-2.1,0.1-2.2c0.9-0.4,1.7-1.3,1.7-2.5c0,0,0-0.1,0-0.1l0,0l-0.2-0.5c-0.2-0.5-0.3-0.9-0.9-1.1C37.8,8.1,36.1,7.9,35.1,9.1z
		"/>
	<path class="st0" d="M46.5,18.5l0.9,0.2c0.7,0.1,1.3,0.3,2.3,0.2l0.2,0l-0.2-0.7l-0.1,0c-0.8-0.1-1.3,0-1.9,0l-1.1,0
		c-0.2,0-0.2,0-0.2,0.1l0,0.1l0,0.1C46.4,18.5,46.5,18.5,46.5,18.5z"/>
	<path class="st0" d="M34.8,15.7C34.6,15.9,34.3,16,34,16l-0.1,0l-0.2,0.5l1.1-0.2c0,0,0.6-0.1,0.8-0.2c0,0,0,0.1,0,0.1
		c0,0.1,0,0.2,0,0.3c0,0.1,0,0.3,0.1,0.4l0,0l0,0l-0.1,0.2c0,0,0,0,0,0c0,0,0.1-0.1,0.1-0.1c-0.2,0-0.4,0-0.5-0.2c0,0,0-0.1,0-0.1
		l-0.1,0c-0.2,0-0.2,0.2-0.2,0.2l0,0.1l0,0.1c0.1,0.2,0.3,0.2,0.5,0.2c0.2,0,0.3,0,0.3,0.1l0,0.1l0.2,0c0.2,0,0.5,0,0.6-0.1
		c0,0,0.1-0.1,0.1-0.2l0,0l0,0c-0.1-0.1-0.2-0.2-0.4-0.3c0,0,0,0,0,0c0.2-0.1,0.2-0.3,0.2-0.5c0,0,0-0.1,0-0.1c0,0,0-0.2,0-0.2
		c0,0,0.2-0.2,0.2-0.2s0.1-0.1,0.1-0.1c0.4,0,0.5-0.4,0.6-0.6l0.1-0.4l-0.2,0c-0.5,0.1-1.4-0.2-1.9-0.3l-0.5-0.1
		c-0.3,0-1.1-0.1-1.6,0.3c0,0,0,0,0,0v0c0,0,0,0,0,0l0.2,0.2c0.6-0.4,1.3,0,1.9,0.2c0.3,0.1,0.5,0.2,0.7,0.3c0,0-0.1,0.1-0.1,0.1
		C35.5,15.4,35.2,15.6,34.8,15.7z"/>
	<path class="st0" d="M25.7,38.7c0.1-0.1,0.2-0.2,0.3-0.3c0,0,0.6-0.9,0.6-0.9c0.7-1,1.3-2,2.5-2.6l0.3-0.2l-0.3-0.1
		c-0.3-0.1-0.9,0.2-1.4,0.5l-0.3,0.1c-0.5,0.3-0.8,0.7-1.1,1.1c-0.3,0.4-0.6,0.8-1.1,1.1c-0.3-0.5-0.6-1-0.8-1.5
		c0.5-0.4,0.9-1,1.1-1.6l0,0l0,0c0-0.1-0.1-0.1-0.1-0.2l0.1,0c0,0,0-0.1,0-0.1l0.1-0.1c0.1,0,0.2-0.1,0.2-0.2c0,0,0,0,0,0
		c0-0.2-0.3-0.2-0.3-0.2l0,0l0,0c-0.5,0.2-1,0.5-1.5,0.7l0.2-0.2c0.4-0.2,0.8-0.5,0.8-1.1c0,0,0,0,0-0.1c0.3-0.4,0.4-0.8,0.5-1.2
		c0-0.3,0.1-0.6,0.2-0.8l0.1-0.2l-0.2,0c-0.1,0-0.2,0-0.3,0.1c0.1-0.2,0.1-0.4,0.1-0.5c0,0-0.2-0.1-0.2-0.1c0.1-0.1,0.3-0.4,0.3-0.4
		l-0.3,0c-0.3,0-0.4,0.2-0.6,0.3c0,0-0.1,0.1-0.2,0.2c0-0.1,0-0.1,0-0.1c-0.2-0.4-0.4-1-1-1c0,0-0.3-0.3-0.3-0.3l0,0.3l-0.3,2.2
		c0,0,0,0.1,0.1,0.1c-0.1,0.1-0.9,0.7-0.9,0.7v0.1c0,0,0,0.1,0,0.1c0,0.7-0.2,1.4-0.3,2.1l-0.1,0.2l0,0l0.2,0.2h0.2
		c0.3-0.3,0.5-0.5,0.7-0.8c0.6-0.4,1.1-1,1.6-1.5c0,0,0.3-0.3,0.6-0.6c-0.2,0.6-0.6,1.2-1,1.8l0,0l0,0.1l-0.1,0.4
		c-0.8,0.3-1.5,0.6-2.2,0.8l-0.1,0l0,0.1c-0.2,0.4-0.4,0.8-0.7,1.2L20,37.6c0,0,0,0.3,0,0.3c0,0,0.2,1.3,0.2,1.3
		c0.1,0.5,0.1,1.1,0.3,1.6c-1.4,0.7-2.8,1.2-4.2,1.7c0,0-1.7,0.6-2,0.7c0-0.4,0.2-0.8,0.3-1.1l0.2-0.5c0.3-0.7,1.1-2.1,1.8-3.3
		c0.8-1.3,1-1.7,1-1.8c0,0,0.1-0.2,0.1-0.2c0.1-0.3,0.3-0.7,0-1l0,0l-0.3-0.1l0,0.2c0,0.5-0.3,1-0.6,1.5l-0.2,0.3
		c-1.1,1.1-1.9,2.5-2.6,3.9c-0.5,1-1,2-1.7,2.9c-1.7,0.7-3.8,1.7-4.6,3.4l0.2,0.2c1-0.9,1.9-1.5,2.8-1.8c0,0,3-1,3-1
		c2.3-0.7,4.7-1.4,6.9-2.6c0.7-0.3,0.9-0.8,0.9-1.3c0-0.4-0.1-0.8-0.2-1.1c-0.1-0.4-0.2-0.8-0.2-1.1c0-0.1,0-0.2,0-0.4
		c0.1-0.4,0.3-0.8,0.5-1.2c0,0,0.4-0.8,0.4-0.9c0.1,0,2.5-1.2,2.5-1.2l0.6-0.3c-0.5,0.7-1.1,1.3-1.8,1.6c0,0-0.1-0.1-0.1-0.1
		c-0.1,0-0.2,0.1-0.3,0.1l-0.1,0.1l0,0c-0.1,0.6-0.3,1-0.6,1.4l-0.1,0.2l0.2,0c0.4,0.1,0.6-0.1,0.8-0.3l0.1-0.1
		c0.3-0.6,0.5-0.8,0.7-0.8c0,0,0.2,0.3,0.2,0.3c0.5,0.9,0.8,1.7,0.9,2.4l0,0.1l0.2,0c0.1,0,0.4,0,0.4-0.3l0-0.1l0-0.1
		C25.5,38.9,25.5,38.9,25.7,38.7z M23.5,30.1c0.1,0.1,0.2,0.2,0.2,0.3c0,0.1,0,0.1,0,0.2c0,0.2-0.2,0.3-0.4,0.5c0,0,0,0,0,0
		C23.4,30.8,23.4,30.5,23.5,30.1z M22.6,33.1c0,0-0.1,0.1-0.2,0.2c0,0,0,0,0-0.1c0-0.2,0-0.4,0-0.5c0.2-0.4,0.6-0.6,1-0.8
		c0.5-0.2,0.9-0.5,1.2-1c0,0,0.2-0.2,0.3-0.4c0,0,0,0.1,0,0.1l-0.3,0.6C24.2,31.8,23.1,32.7,22.6,33.1z"/>
	<path class="st0" d="M29.3,28.8L29,29.1c-0.5,0.6-0.6,1.2-0.3,1.9c0,0,0,0.1,0,0.1c0.1,0.2,0.3,0.5,0.6,0.6l0.1,0l0,0l0.3-0.2
		c0.1-0.1,0.2-0.3,0.1-0.5l0-0.1l0,0c-0.5-0.4-0.5-1.1-0.5-1.7L29.3,28.8z"/>
	<path class="st0" d="M34.7,21.6L34.7,21.6l0.2-0.1c0,0,0.1-0.1,0.2-0.1l0.1,0c0.2,0.3,0.5,0.3,0.7,0.3l0.1,0l0.1,0
		c0.1,0,0.3-0.1,0.4-0.2l0.1-0.1l-0.1-0.1l-0.3-0.2l0,0c0,0-0.1,0-0.1,0c0,0-0.1-0.2-0.1-0.2c-0.2-0.1-0.5-0.2-0.7,0
		c-0.3,0-0.6,0-0.7-0.2c0-0.3-0.1-0.3-0.2-0.4l-0.1,0l-0.1,0.1c-0.1,0.1-0.1,0.2,0,0.4C34.3,21.2,34.5,21.6,34.7,21.6z"/>
	<path class="st0" d="M48.3,12.6c0,0.2,0,0.4,0.2,0.6l0,0l1.7,1.6l0.2-0.9L49.6,13c-0.3-0.4-0.7-0.8-1.2-1l-0.2-0.1l0.1,0.3
		L48.3,12.6z"/>
	<path class="st0" d="M37,20.8c0.2,0,0.4,0,0.5-0.2c0.1-0.1,0.1-0.2,0.1-0.3c0-0.2-0.2-0.3-0.4-0.4l0,0l0,0c-0.4-0.1-0.6,0-0.7,0.1
		c-0.2,0.1-0.2,0.1-0.3-0.1c0,0-0.1-0.2-0.1-0.2l-0.3-0.4l-0.1,0.2c-0.1,0.1-0.2,0.3-0.2,0.4c0,0.3,0.3,0.5,0.4,0.6l0,0l0,0l0.3,0
		c0,0,0.2,0,0.2,0c0,0,0,0.1,0,0.1c-0.1,0.1-0.1,0.2,0,0.3c0,0,0.1,0.1,0.2,0.1c0,0,0.1-0.1,0.1-0.1L37,20.8z"/>
	<path class="st0" d="M22.8,42.3l0.2,0.1c0.3,0.2,0.5-0.1,0.7-0.2l0.1-0.1l0,0c0.1-0.3,0.2-0.7,0.2-1c0-0.6-0.2-1.1-0.5-1.6
		c0,0,0,0,0,0l-0.2,0.1c0.4,1.2,0.3,2.1-0.3,2.7L22.8,42.3z"/>
	<path class="st0" d="M58.2,19.2l0.1,0l0-0.1c0-0.1,0-0.3-0.1-0.5c-0.1-0.1-0.3-0.1-0.5-0.1l-0.1,0c-0.3,0-0.5,0-0.5,0L57,18.2
		l0,0.4l0,0.3l0,0.1C57.3,19.2,57.8,19.2,58.2,19.2z"/>
	<path class="st0" d="M60.8,13c0.5-0.5,1-1.1,1.4-1.7L62,11.1l-0.9,0.7c-0.6,0.5-1.3,1-1.8,1.6l-0.1,0.1l0.6,0.7L60.8,13z"/>
	<path class="st0" d="M57.5,16l0.2,0l0,0c0.2,0.1,0.4-0.1,0.5-0.2l0.3-0.3l-0.1-0.1L57.9,15L57.8,15c-0.2,0.1-0.3,0.3-0.3,0.5
		c-0.1,0.1-0.1,0.2-0.2,0.3l0,0.3L57.5,16z"/>
	<path class="st0" d="M59.7,18.5L59.7,18.5l-0.3,0.8l1,0c1,0,1.9,0,2.9-0.2l0-0.3C62,18.5,60.6,18.4,59.7,18.5z"/>
	<path class="st0" d="M54.6,9.5L54.6,9.5l0.4,0l0.3,0l0-0.1l0-0.2c0-0.9,0-2.1-0.2-3l0,0l0-0.1c0,0-0.1-0.2-0.2-0.1
		c-0.1,0-0.2,0.1-0.2,0.6c-0.1,1-0.2,2-0.1,2.9L54.6,9.5z"/>
	<path class="st0" d="M51.3,18.2L51.3,18.2l-0.1,0.2l0,0.2c0,0.1,0,0.3,0.1,0.4c0.1,0.1,0.2,0.1,0.3,0c0.4,0,0.9,0,0.9,0l0.5,0.2
		l-0.4-0.5C52.3,18.4,51.9,17.9,51.3,18.2z"/>
	<path class="st0" d="M51.8,15.9l0.4,0.3l0.2-0.2l0,0c0,0,0,0,0,0c0,0,0.1-0.1,0.1-0.2c0-0.1,0-0.1-0.1-0.2l-0.8-0.8l-0.1,0.2
		l-0.4,0.7l0.2,0C51.5,15.6,51.7,15.8,51.8,15.9z"/>
	<path class="st0" d="M54.9,10.8l-0.2-0.1l0,0.2l0,0.1c0,0.4-0.1,0.9,0.3,1.2l0.2,0.2l0.1-0.5C55.3,11.6,55.4,11,54.9,10.8z"/>
	<path class="st0" d="M10.7,93.1c0,0.1,0,0.3,0.1,0.4l0.1,0.1l0.1-0.1c0.2-0.2,0.2-0.5,0.2-0.8c0-0.3,0-0.5,0.2-0.8
		c0.2-0.4,0.4-0.6,0.7-0.8c0.3-0.2,0.6-0.5,1-1.1l0.1-0.2c0.3-0.5,0.6-1,0.6-1.3c0.1-0.7,0-1.2-0.2-2.1c-0.5-2.7-0.9-5.8,1.1-7.9
		l0.4-0.4c0.3-0.4,0.5-0.7,1-0.7H16l0.3-0.4c0.3,0.1,0.5,0,0.7-0.1c0.2-0.1,0.4-0.1,0.6,0c0,0,1.1,0.6,1.1,0.6s0.9,0.5,0.9,0.5
		c0,0,0.1,0.1,0.2,0.2l0,0c-1.1,0.2-2.4,0.6-3.1,1.6c0,0-0.2,0.4-0.2,0.4c-0.1,0.2-0.3,0.4-0.3,0.7c0,0,0,0,0,0.1l0,0.1l0.5,0.4
		l0.1-0.1c0.2-0.1,0.3-0.3,0.4-0.5c0.1-0.2,0.2-0.4,0.5-0.6c0.8-1.1,2-1.1,3.4-1c1.9,0.7,3.8,2,5.9,4c-0.5,0.5-0.7,1.3-0.7,1.9v0.1
		l0,0.4l0.2-0.3c0.2-0.4,0.9-1.2,1.6-1c0.2,0,0.4,0.2,0.5,0.3c0,0,0.1,0,0.1,0.1c-0.4,0.2-0.7,0.6-0.8,1.2c0,0,0,0.4,0,0.4
		c0,0.2,0,0.5,0,0.7c0,0.4,0.1,0.9,0.4,1.3c0,0,0.3,0.4,0.3,0.4c0.5,0.6,1.1,1.2,1.9,1.3l0.1,0c0,0,0.2-0.3,0.2-0.3c0,0,0,0,0,0
		l0.2-0.2l-0.2-0.1c-0.8-0.3-1.5-1.1-1.9-2.2c0-0.1,0-0.2,0-0.3c0-0.2,0-0.5,0.2-0.7c0.1,0,1.6-0.8,1.7-0.8c0.1,0,0.3,0.2,0.3,0.2
		s0-0.1,0-0.1c0.5,0.1,1,0.2,1.5,0.1l0.4-0.1l-0.3-0.2c-2.1-1.1-3.9-2.5-5.7-3.9c-1.6-1.3-3.2-2.5-5-3.6c-1.1-0.7-2.2-1.5-3.2-2.3
		c-1.6-1.2-3.2-2.4-5-3.4c-2.9-2-4.9-5-6.2-9c0.7,0.3,2.2,0.2,2.9,0c1.3-0.4,2.5-1,3.5-1.7c0.8-0.3,1.6-0.3,2.5-0.3h0.1l0-0.3
		l-0.3-0.1l-0.6-0.2c-1.7-0.2-3.8,0.6-5.4,1.3c-1,0.4-1.8,0.8-2.2,0.7c-0.3,0-0.3-0.1-0.4-0.2c0.1-0.4,0.5-0.7,0.8-0.9
		c0.4,0.1,0.7-0.2,0.8-0.5c0.1-0.3,0.1-0.6-0.3-0.8c-0.6-0.2-1.2,0.1-1.6,0.7C7,61.2,6.8,61.6,6.8,62c0,0.2,0.1,0.4,0.2,0.7
		c0.1,0.1,0.1,0.2,0.3,0.2L7,63c0.5,3.4,1.6,6.1,3.4,8.1c0,0,0.2,0.2,0.2,0.2c0.4,0.5,1.2,1.3,1.3,1.4c0.3,0.5,1.2,1.2,2.1,2.1
		c0.8,0.7,1.6,1.4,2.2,2l0,0l0,0l-0.2,0c-0.6,0-1.1,0.2-1.6,0.5c0,0,0,0,0,0l-0.2-0.3l-0.1,0c-0.7-0.1-1.3-0.5-1.8-0.9
		c-0.5-0.3-1-0.7-1.7-0.9c-1.3,0-2.5,0.9-3,2.1c-0.6,1.6-0.6,3.4-0.6,5.1v0.2l0,1.5c0,0.1,0,0.2,0,0.3c0,0.8-0.2,1.4-0.4,2.1
		c-0.2,0.6-0.4,1.3-0.4,1.9c0,0.5,0.1,1,0.4,1.5c0.2,0.6,0.7,1,1.2,1.3c0.3,0.2,0.7,0.5,0.9,0.8l0,0l0,0c0.3,0.2,0.7,0.3,1,0.4
		c0,0,0.6,0.2,0.7,0.3c0,0,0,0.1,0,0.1C10.7,93,10.7,93,10.7,93.1z M10.5,91.5c-0.4,0-0.7,0.1-0.9-0.1C9.4,91,9,90.8,8.5,90.5
		c-1-0.6-2.1-1.2-1.4-2.6c1.5-2.2,1.4-4.8,1.3-7.3l0-2.5c0-0.4,0.2-0.7,0.3-1c0,0,0,0,0,0c0.2-0.2,0.3-0.4,0.5-0.4
		c0.8-0.4,1.4-0.5,1.8-0.1c0.9,0.5,2,0.9,3,1c-0.6,0.5-1.1,1.3-1.5,2.1c-0.7,1.5-1,3-1,4.6c0,1,0.1,1.9,0.4,2.8
		c-0.6,0.6-1.1,1.3-1.5,2l-0.2,0.3l0,0.1l0.1,0.4c0.1,0.4,0.1,0.9,0.8,0.8c-0.1,0.2-0.3,0.5-0.3,0.7C10.8,91.4,10.5,91.5,10.5,91.5z
		"/>
	<path class="st0" d="M31.8,57c0.4,0.7,1.2,0.8,1.7,0.9l0,0l0.8-0.3l0.8-0.3c1-0.8,2.3-1.1,3.6-1.3c4.5-0.7,12.1,0.3,12.5,0.4
		c0,0,1.4,0.3,1.4,0.3c0.9,0.2,1.9,0.4,2.9,0.4c0.7,0.1,1.6,0.5,2.3,1.2l0.2-0.2c-1-2.1-3.5-2.8-6-3.2c0,0-0.2,0-0.2,0
		C45.4,54,38.6,53.2,32.8,57c0.1-0.2,0.2-0.4,0.3-0.6c0.1-0.2,0.3-0.5,0.3-0.8c0-0.1,0-0.2,0-0.2c-0.2-0.4-0.5-0.7-0.8-1l-0.3-0.2
		l0,0c-0.3,0-0.3,0.2-0.3,0.4l0,0.1l0.1,0.1c0.5,0.3,0.4,0.6,0.1,1.1C31.8,56.1,31.6,56.6,31.8,57z"/>
	<path class="st0" d="M23.7,16c0,0.4,0.1,0.8,0.3,1.1c0.5,0.6,1.1,0.8,1.6,0.7c0.2,0,0.4-0.2,0.5-0.3l0.2-0.2l0,0
		c0.1-0.1,0-0.2,0-0.3L26.3,17l-0.1,0c-0.4,0.1-1.1-0.1-1.3-0.4c-0.2-0.5-0.2-1.1-0.1-1.6l0-1l0,0l-0.1-0.1c-0.2-0.2-0.6-0.6-1-0.5
		l0,0.3c0.3,0,0.5,0.3,0.5,0.6c0,0.1-0.1,0.2-0.1,0.2C23.9,14.9,23.7,15.5,23.7,16z"/>
	<path class="st0" d="M25.8,63.6c-4.4-0.8-9.3-1.3-12.2,2.4c-0.1,0.2-0.3,0.4-0.5,0.6c0,0-0.1,0.1-0.2,0.2c0,0-0.1-0.1-0.1-0.1
		l-0.1,0.1c-0.1,0.2,0,0.6,0.1,0.8c0.1,0.3,0.4,0.4,0.6,0.5l0.4,0.2c0.5,0.3,0.9,0.2,1.3,0.1l0.2-0.1c0.6-0.2,0.9-0.7,1.2-1.2
		c0.4-0.7,0.7-1.2,1.7-0.8l0.2,0.1l0-0.2c-0.1-0.5-0.5-0.5-0.8-0.5c-0.2,0-0.4,0-0.5-0.1l0,0h0c-0.5,0-0.8,0.3-1.2,0.6l-0.7,0.5
		c0,0-0.5,0.2-0.5,0.2c-0.5,0.2-1,0.4-1.5,0.1c0.2-0.2,0.3-0.4,0.6-0.5c0.4,0,0.6-0.2,0.8-0.4c0,0,0.2-0.2,0.2-0.2
		c0,0,0.4-0.2,0.4-0.2c0.9-0.5,2-1.1,2.9-1.2c4,0.2,7.5,0.5,11.2,1.3c3.8,0.4,7.6-0.2,11.6-1.8c-0.1,0.3-0.3,0.5-0.5,0.7
		c-0.2,0.2-0.4,0.4-0.5,0.7c0,0-0.1,0.1-0.1,0.1c-1.9,1.6-4.5,3.2-7.1,4.2c0.1,0-0.4,0.1-0.4,0.1c-0.2,0.1-0.4,0.1-0.6,0l-0.2-0.1
		l-0.1,0.4l0.1,0.1c0.8,0.6,1.9,1.1,3,1.2c2.6,0,5.1-0.6,7.5-1.1c0,0,0.4-0.1,0.7-0.1c-0.7,1-1.6,2.1-2.3,2.7c0,0-0.2,0.2-0.2,0.2
		c-0.8,0.6-1.8,1.2-2.7,1.1c0,0-0.2,0-0.2,0c-0.5-0.1-1-0.1-1.1,0.2c-0.1,0.3,0.1,0.7,0.7,1.3c0.6,0.6,1.7,1.1,2.8,1
		c-0.2,0.5-0.5,1.3-0.5,2c0,0.7,0.2,1.4,0.8,2l0,0l0.5,0.2l-0.1-0.2l-0.1-0.2c-0.1-0.2-0.4-0.7-0.4-1.3c0,0,0-0.1,0-0.1
		c0,0,0.2-0.6,0.2-0.6c0.1-0.5,0.3-1.1,0.8-1.3c0.2-0.2,0.5-0.2,0.8-0.1c0,0,0,0,0,0l0,0.1c0,0.1,0.1,0.2,0.1,0.2
		c0.1,0,0.2,0,0.2-0.1l0,0l0,0c0.1-0.3,0-0.6-0.1-1L42,75.9c-0.3-0.5-0.8-0.3-1.2-0.2l-0.6,0.1c0,0-0.3,0-0.3,0
		c-0.4,0-0.9,0-1.2-0.2c2.5-0.9,4-2.9,5.4-5c0,0,0.6-0.9,0.7-0.9c0,0,0.1,0,0.1,0c2.5-1.3,5.1-2.6,6.2-5.1l0,0l0-0.1
		c0-0.1-0.1-0.3-0.3-0.3c-0.1,0-0.2,0.1-0.3,0.2c-0.6,1.4-2.9,2.5-4.3,3.1c0.4-0.6,0.9-1,1.5-1.4l1-0.8c0.8-0.5,1.3-0.8,2.1-1.2
		l-0.1-0.3c-2.4,0.5-4.5,2.5-6.5,4.5c-3.3,1.3-6.6,1.7-9.8,1.9c2.2-0.9,4.2-2.4,5.9-3.8c0.4-0.3,0.6-0.8,0.8-1.2
		c0.2-0.3,0.3-0.7,0.6-0.9l0,0c0,0,0-0.1,0-0.1c0-0.3,0.3-0.6,0.6-0.8l0.1-0.1c0,0,0.4-0.3,0.4-0.3c0.3-0.2,0.7-0.5,1-0.6l0.1,0
		l0-0.2l0,0c0,0,0-0.1-0.1-0.2l0.1,0.1L43.7,62c-0.1-0.1-0.3,0-0.5,0.1L43,62.2c0,0-1.1,0.3-1.1,0.3c-2.1,0.8-4.3,1.1-6.4,1.3
		c0,0-1.8,0.2-1.8,0.2c0,0-1.4,0-1.4,0C30,64,28,64,25.8,63.6z"/>
	<path class="st0" d="M10.9,81.3L10.9,81.3c0,0.2,0.1,0.3,0.1,0.4c0.2,0.2,0.5,0.1,0.7,0.1l0.2,0l-0.1-0.2c-0.2-0.3-0.4-0.8-0.3-1.2
		l0-0.2l-0.2,0c-0.5,0.1-0.5,0.5-0.4,0.8L10.9,81.3z"/>
	<path class="st0" d="M61.6,22.1c-0.5-0.3-1.5-0.4-2.1,0c0,0-0.2,0-0.2,0h0c-0.1-0.2-0.1-0.4-0.2-0.6c0-0.4-0.1-0.8-0.5-1.1
		c-0.1-0.1-0.3-0.1-0.3-0.1c-0.3,0.2-0.5,0.5-0.7,0.7c0,0-0.3,0.3-0.4,0.4c-0.7-0.3-1.6-0.9-2-1.9c0,0,0,0,0,0c0,0,0,0,0.1-0.1
		l0.2-0.2c0.5-0.6,0.7-1.3,0.7-2c0-0.3,0-0.6-0.1-0.9c-0.1-0.4-0.2-0.8-0.4-1.1c-0.2-0.3-0.3-0.6-0.4-1.1c0,0-0.2-1-0.2-1l0-0.2
		l-0.3,0c0,0-0.1,1.8-0.6,2.5c-0.4,0.6-0.8,1.4-0.8,2.3c0,0.1,0,0.1,0,0.2c0.1,0.7,0.5,1.1,0.9,1.6c0,0,0,0.1,0.1,0.1
		c-0.2,0.1-0.3,0.2-0.4,0.3l-0.2,0.2c-1.7,1.2-3.3,1.3-5.4,1.4c-0.3,0-0.6,0.1-0.6,0.3v0c0,0.2,0.3,0.3,0.4,0.4
		c0.9,0,1.3,0.6,1.8,1.2c0.2,0.2,0.4,0.4,0.6,0.6c-0.3,0-0.7-0.1-0.9,0.2l-0.2,0.2l0.3,0c0.8,0.1,1.6,0.7,2.3,1.3
		c0.7,0.5,1.3,1.1,2.1,1.3c0.1,0.2,0.2,0.3,0.4,0.4c0.3,0,0.5-0.1,0.6-0.4c0-0.1,0.1-0.3-0.2-0.5l0,0.1c0,0-0.2-0.2-0.2-0.2
		c0.4-0.1,0.8-0.1,1.2-0.1c0,0,1.6-0.4,1.6-0.4s0.2,0,0.4-0.1c0,0-0.1,0.1-0.1,0.1c-0.2,0.2-0.5,0.4-0.6,0.7l-0.2,0.3
		c0,0,0.4-0.1,0.4-0.1c0,0,0.1,0.1,0.1,0.1s2-1.6,2.2-1.8c0.1,0.1,0.2,0.1,0.2,0.2v0c0,0.2-0.2,0.3-0.4,0.5l-0.4,0.4
		c-0.2,0.1-0.4,0.2-0.6,0.3L57.9,27l0.1,0.3c0.6,0,1.1-0.2,1.7-0.4l0.4-0.1c-0.4,0.4-0.7,0.9-0.9,1.4c-0.2,0.4-0.4,0.7-0.6,1
		c0,0-0.6,0.6-0.6,0.6c-0.4,0.5-0.7,0.9-1.2,0.9c0,0-0.4,0.1-0.4,0.1l-0.2,0.1l0.2,0.1l0.2,0.2c0,0,0.1,0.1,0.2,0.2
		c-0.4,0.6-0.8,1.7-1.4,3.1c-0.9,2.2-1.9,5-3.4,6.8c-0.4,0.7-0.9,1.4-1.3,2.1c-0.6,0.8-1.2,1.7-1.6,2.6l0,0.1l-0.1,0
		c-3.5-1.2-8.6-3.8-11.2-5.9c-0.5-0.3-0.6-0.9-0.6-1.4v-0.2c0-0.3,0-0.6-0.1-1c-0.4-2-0.9-4.2-1.4-6.4c0.8,0.5,1.5,1.1,2.2,1.7
		c0.8,0.7,1.7,1.5,2.8,2.1c1.1,0.9,2.8,2.5,4.2,3.8l1.2,1.1c0.7,0.4,0.8,0.2,0.9,0.2l0.6-0.7c0.7-1.2,1.7-2.2,2.7-3.2
		c1-1,2-2.1,2.8-3.3c0.4-0.7,1.2-2.5,0.9-3.1c-0.1-0.1-0.3-0.4-0.8-1c-0.7-0.9-1.9-2.4-2.5-3.4c-0.3-0.2-0.6-0.5-0.9-0.4
		c-0.1-0.1-0.3-0.2-0.3-0.2c-0.2-0.1-0.4,0-0.4,0l-0.1,0.1l0.1,0.1c0.9,0.6,1.5,1.4,2.1,2.3c0,0,0.8,1.1,0.8,1.1
		c0.1,0.3,0.3,0.6,0.5,0.9c0.3,0.4,0.5,0.7,0.5,1c0,0.1,0,0.3-0.1,0.4c-1.5,3.1-3.9,5.6-6.2,7.9c-0.2-0.1-0.4-0.2-0.6-0.4l-0.5-0.4
		c-1.8-1.1-4.5-3.5-5.9-4.8c-0.4-0.5-0.9-0.9-1.4-1.2c-0.5-0.3-0.9-0.6-1.2-1c-0.4-0.3-0.8-0.6-1.2-0.8l-1.2-0.8
		c0,0-0.1,0.1-0.1,0.1c0,0-0.1,0-0.1,0l-0.3,0c0-0.2-0.1-0.3-0.1-0.3L34,28.2l-0.2,0.3c-0.1,0.2-0.1,0.8,0,1.8c0,0.7,0.1,1.5,0,1.9
		c0.1,0.9,0.1,4,0.1,4.6l0,0.2c0,0.7-0.1,1.8-0.3,2.7c0,0-0.1,1.3-0.1,1.3c-0.2,1.8-0.3,3.4-1.1,5.1c-0.3,0.4-0.7,0.7-1,1
		c-0.4,0.3-0.7,0.6-1,1c0,0-1.4,1.1-1.4,1.1c-2.1,1.7-4.1,3.2-5.5,5.3c-0.4,0.6-0.1,1.4-0.1,1.5c0.3,0.6,0.7,0.8,1,0.8
		c0.4,0,0.7-0.2,0.9-0.4c0.3-0.5,0.7-0.6,0.8-0.5l0.1,0.1c0.2,0.1,0.4,0.2,0.5,0.1c0.1-0.1,0.1-0.2,0-0.4c-0.2-0.3-0.8-0.6-1.3-0.2
		c-0.2,0.1-0.3,0.2-0.3,0.2c0,0,0,0,0-0.2c0-0.1,0-0.2,0-0.4c0.2-1.2,0.9-1.8,1.8-2.5c0.4-0.3,0.7-0.6,1-1c1.6-1.2,3-2.7,4.3-4.2
		c0,0,0.7-0.8,0.8-0.9c1.2-0.5,1.5-1.8,1.7-3l0.2-0.8c0.1-1.4,0.1-2.8,0.1-4.1c0-3.2-0.2-6.2-0.5-9l0.4,1.2c0,0,0.1,0.2,0.1,0.3
		c0,0,0,0,0,0c0,0-0.1,0-0.1,0l-0.1,0.1l0.1,0.1c0.1,0.3,0.2,0.7,0.3,1l0.3,1.1c0.5,1.3,0.6,2.4,0.7,3.7c0.1,0.8,0.2,1.7,0.4,2.6
		c0.1,0.5,0.1,1.1,0.1,1.6c0,0.3,0,0.6,0,0.8c0,0,0,0,0,0c0,0.2,0.1,0.8,0.3,1.6c0,0,0.2,0.9,0.2,0.9c-0.2,1-0.9,1.6-1.7,2.3
		c-0.5,0.4-1,0.9-1.4,1.5c-1.4,1.8-2.5,3.4-3.3,4.9c0,0-0.2,0.6-0.2,0.6L30,54.7l0,0l0,0.3c0,0.6,0,1.1,0,1.7c0,0.7,0,1.3-0.1,2
		c-0.1,0.7-0.8,1.1-1.3,1.4l-0.2,0.1c-0.9,0.6-1.4,1.7-1.4,2.8v0.1l0.3,0.6l0.1-0.2c0.3-0.6,0.9-1,1.6-1.3c0.8-0.4,1.6-0.9,1.8-2
		c0,0,0-0.2,0-0.2c0-0.4,0.1-0.8,0.1-1.1c0,0,0-0.1,0-0.1c0.2-0.2,0.3-0.4,0.3-0.6c0-0.2,0-0.3-0.1-0.5l0-0.1
		C31,57.4,31,57.1,31,56.9c0-1.6,1-3.1,2-4.4l0.4-0.5c0.6-1.8,2-3.1,3.3-4.4l0.2-0.2c0.5-0.8,0.9-1.7,0.9-2.7c0-0.4-0.1-0.8-0.2-1.2
		v0c0-0.1-0.1-1.7-0.1-1.7s0-0.4-0.1-0.8c0.8,1,2.5,1.8,4,2.5c0.8,0.4,1.5,0.7,2,1c0,0,0.8,0.5,0.8,0.5c0.4,0.3,0.9,0.6,1.4,0.7
		c0.6,0.4,1.5,0.6,2.2,0.7l0.6,0.1c0,0-0.1-0.1-0.1-0.2c0.1-0.1,0.3-0.2,0.6-0.2l0.5-0.1l-0.1,0c0.6-0.2,0.8-0.6,1.1-1
		c0.2-0.3,0.3-0.6,0.6-0.7c2.2-2.3,3.4-5.2,4.5-8l0.9-2.1c0,0,1.3-2.5,1.4-2.6c0,0,0.1-0.1,0.1-0.1c0.3-0.2,0.6-0.4,0.8-0.8
		c0,0,0,0,0,0c0.1-0.1,0.3-0.4,1-1.4c0,0,1.1-2.4,1.1-2.4l0,0l0-0.1c0-0.1-0.2-0.2-0.2-0.2c0.4-0.3,0.6-0.7,0.6-1.2v-0.1l0-0.1
		c-0.1-0.1-0.2-0.3-0.4-0.4c0-0.1,0.1-0.2,0.1-0.3c0-0.3-0.2-0.7-0.3-0.9l0,0l0,0c-0.2-0.1-0.3-0.3-0.5-0.5c0,0,0-0.1-0.1-0.1
		c0.3,0,0.7-0.1,1,0.1c0.1,0.1,0.2,0.2,0.2,0.4c0,0.2,0,0.3-0.1,0.4L60.7,24l0.1,0.1c0,0,0.6,0.4,1.2,0.4l0.1,0l0-0.2l0-0.3
		c0,0,0-0.3,0-0.3C62.2,23.1,62.2,22.5,61.6,22.1z M58.1,21.4c0,0,0,0.1,0,0.1c0,0.1,0,0.2,0.1,0.3c0,0,0,0,0,0s-0.1,0-0.2,0
		C58,21.6,58,21.5,58.1,21.4z M54.3,18.3c-0.1-0.2-0.1-0.5-0.1-0.7c0-0.8,0.4-1.5,0.8-2.1c0.2,0.6,0.4,1.1,0.4,1.6
		c0,0.4-0.1,0.8-0.3,1.2c0-0.1,0-0.2,0-0.2c0-0.2,0-0.3,0-0.5c0-0.1,0-0.2,0-0.3l0-0.1l-0.4-0.4l-0.1,0.6c-0.1,0.3-0.1,0.6-0.1,1
		c0,0,0,0,0,0.1C54.4,18.4,54.3,18.3,54.3,18.3z M52.8,21.8l0.1-0.1l0.2-0.1c0.4-0.2,0.8-0.3,0.9-0.4l0.1-0.1
		c0.2-0.1,0.5-0.4,0.7-0.7c0,0.1,0,0.3,0,0.3l0,0c0.4,0.7,1.1,1.1,1.7,1.4c-0.1,0-0.3,0-0.4,0c-0.3,0-0.6,0-0.9,0.1
		c0,0-1.7-0.1-1.7-0.1c-0.6,0-1.1,0-1.6-0.1C52.3,22,52.6,21.9,52.8,21.8z M55.5,25.7C55.4,25.7,55.4,25.7,55.5,25.7
		c-1.9,0.5-3.4-1-4.2-1.9c0,0,0-0.1,0-0.1c0-0.1,0-0.1-0.5-0.5c0,0-0.3-0.3-0.6-0.6c0.8,0.1,1.6,0.2,2.3,0.3
		c1.3,0.2,2.6,0.4,3.9,0.3c-0.5,0.2-1,0.6-1.3,0.9l-0.3,0.3l0.4-0.1c0.8-0.1,1.5-0.4,2.2-0.7l1-0.4l0.1,0c0.1,0,0.1,0.2,0.1,0.3
		c0,0,0.1,0.1,0.1,0.2c-0.1,0.1-0.3,0.2-0.3,0.2c-0.7-0.1-1.2,0.2-1.8,0.4l-0.7,0.3c-0.1,0.1-0.2,0.1-0.3,0.2c0,0.1,0.1,0.2,0.2,0.3
		l0,0l0,0c0.2,0,0.4,0,0.6,0C56,25.4,55.5,25.7,55.5,25.7z M59.9,24.2C59.9,24.2,59.9,24.2,59.9,24.2c0,0.1,0,0.1-0.1,0.2
		c-0.1,0-0.6,0.3-0.6,0.3c-0.9,0.5-1.7,0.9-2.7,1c0.7-0.4,2.4-1.3,2.4-1.3l0.6-0.3c0.1,0,0.1,0,0.2,0C59.8,24.1,59.8,24.2,59.9,24.2
		z"/>
	<path class="st0" d="M59.7,92.6L59.7,92.6L59.7,92.6c-0.2-0.1-0.3-0.3-0.5-0.2c0,0-0.1,0.1-0.1,0.2c0,0.1-0.4,0.9-0.8,1.2
		c-0.1,0.1-0.3,0.1-0.5,0.1c0,0-0.4,0.1-0.5,0.1c0,0-1.7-0.1-1.7-0.1c-1.4,0-2.8,0-4.2-0.6c-1.6-0.6-3.9-1.3-5.9-0.7
		c0,0-0.6,0.1-0.6,0.1c-0.4,0.1-0.6,0.2-0.8,0c0.1-0.2,0.2-0.4,0.2-0.7c0.1-0.4,0.2-0.9,0.2-1.3c0-0.4,0-0.8-0.1-1.3
		c0.8,0.4,1.9,0.5,2.8,0.2c0.5-0.1,1.1-0.4,1.6-0.8c0.6-0.4,1.2-0.8,1.9-0.8l0.2,0c0,0,0-0.2,0-0.2c0.2,0.1,0.4,0.3,0.5,0.5
		c0.2,0.2,0.4,0.5,0.7,0.7c0.9,0.4,1.7,1.1,2.4,1.8c0.5,0.5,1,0.9,1.5,1.3l0,0l0.9,0.1c0.7,0.1,1.5,0.3,2.1-0.2l0.2-0.1L59,91.9
		c-0.5-0.3-1.1-0.4-1.6-0.6l-0.8-0.2c-0.6-0.2-1.3-0.6-1.9-1.1l-0.4-0.3c-0.3-0.3-0.6-0.5-0.9-0.7c-0.3-0.2-0.6-0.4-0.6-0.6
		c0,0,0-0.1,0-0.1c0-0.1,0-0.2,0.1-0.3c0,0,0.1,0,0.1-0.1c0.1-0.1,0.1-0.2,0.1-0.3c0-0.1,0-0.1,0-0.1l0,0l0,0
		c-1-0.9-1.9-2.2-2.5-3.7c0.1,0,0.2-0.1,0.4-0.3l0,0l0.9-3c0.3-0.7,0.5-1.5,0.7-2.2l0.4-1.7c2.1-5.3,3.7-9.9,4.8-14.9
		c0,0,0.1-0.7,0.1-0.7c0-0.4,0.1-0.7,0.1-1.1c0-0.4-0.1-0.8-0.3-1.1c0,0,0,0,0,0l-0.1-0.4c-0.1-0.2-0.3-0.3-0.4-0.2
		c0,0-0.1,0.1-0.1,0.2c0,0.1,0,0.1,0.1,0.2c0,0.1,0,0.3,0,0.5c0,0.1,0,0.3,0,0.3c0,0.4,0,0.9,0.2,1.2v0c0,1-0.3,1.8-0.7,2.7
		l-0.5,1.4c0,0-1,2.1-1,2.1l-1,2.1c0,0-0.7,3-0.7,3c-0.7,1.7-1.2,3.6-1.7,5.4c-0.4,1.4-0.8,2.9-1.3,4.4c0,0-0.2,0.3-0.3,0.5
		c0-0.1-0.4-1.7-0.4-1.7l-0.4-1.7L49,79l0.1,1.4c0.1,1.2,0.1,2.5,0.6,3.7c0,0.6,0.4,1.1,0.7,1.6c0.3,0.4,0.5,0.7,0.7,1.2
		c0,0,0,0,0,0c0,0,0,0.1-0.1,0.1c-0.1,0-0.1,0.1-0.2,0.2c-0.7-0.4-1.5-0.2-2.1,0.1c-0.4,0.2-0.7,0.5-1.1,0.8c-0.8,0.7-1.6,1.4-2.6,1
		c-0.2-0.1-0.4-0.1-0.6-0.1c-0.4-2.9-2.1-5.7-3.7-8.1l-0.1-0.1l-0.3,0.2l0,0.1c0.3,1,0.7,2,1.1,3c0.7,1.9,1.5,3.9,1.6,5.9
		c0,0.1,0,0.3,0,0.4c0,0.5-0.2,1.1-0.3,1.7c-0.1,0.4-0.2,0.9-0.3,1.3c-2,0.5-4.1,0.6-6.2,0.7l-0.8,0c-2.3-0.1-4.6-0.5-6.9-0.8
		c-3.9-0.6-7.8-1.3-11.7-0.4l0,0.3c1.1,0.1,2.6,0.1,3.9,0.3c-2.8,0.4-5.8,0.6-9.6,0.8l-0.4,0l0.4,0.2c1.5,0.9,3.3,0.9,4.9,0.7
		c2.2-0.4,4.4-0.7,6.5-0.9c0.5-0.1,1.1,0,1.7,0c0.7,0,1.3,0.1,2,0c3,0.6,5.8,1.2,8.5,1.6c0,0,1,0.1,1,0.1c1.6,0.1,3.2,0.2,4.7-0.3
		c0.4-0.3,0.8-0.4,1.3-0.5c0.6-0.2,1.3-0.4,1.7-1c0.1,0,0.2-0.1,0.3-0.2c0,0,0.1-0.1,0.1-0.1c1.1,0.3,2.3,0.2,3.4,0.2
		c1.4,0,2.8,0,4,0.5c0.7,0.3,3.9,0.5,4.8,0.5c0.3-0.1,0.7-0.1,1.1-0.1c1,0,2.1,0,2.5-1.3C59.8,93.2,59.9,92.9,59.7,92.6L59.7,92.6z"
		/>
	<path class="st0" d="M10.2,57.9l0.2,0.1c2.6,0.6,6.5-1.2,7.1-1.6c0.5-0.4,3.4-2.3,3.4-2.3l-0.1-0.2l-0.9,0.3l-1,0.5
		c-2.2,1-7.2,3.3-8.5,2.7c-0.8-0.4-1-1.1-1-1.8c0-0.3,0-0.6,0.1-0.7c0-0.1,0.1-0.2,0.1-0.4c0-0.1,0-0.2,0-0.3c0-0.1,0-0.2-0.1-0.2
		c-0.1,0-0.2,0-0.2,0.1c-0.2,0.2-0.9,1-0.9,1.4l0,0.1c0,0.2,0,0.3,0,0.5c0,0.5,0.1,1.2,0.4,1.7c0,0.1,0,0.1,0,0.2
		c0,1.8,1.2,2.5,1.4,2.6c0.7,0.2,1.2,0,1.3-0.3l0-0.1l0-0.1c-0.1-0.1-0.2-0.2-0.5-0.3c-0.3-0.1-0.7-0.3-0.8-0.5L10.1,59
		c-0.2-0.4-0.4-0.8-0.2-1.1C9.9,57.8,10,57.8,10.2,57.9z"/>
	<path class="st0" d="M26.1,14c0,0-0.1,0.2-0.1,0.2c-0.2,0.3-0.4,0.6-0.3,1l0,0.1l0.1,0c0.2,0,0.3-0.2,0.4-0.3l0.1-0.2
		c0.6-0.7,1.4-1,2.3-0.8c0,0,0.4,0,0.4,0l0.3,0l0-0.1c0-0.2-0.2-0.3-0.3-0.3l-0.1,0l-0.1-0.1l-0.6,0C27.5,13.4,26.7,13.4,26.1,14z"
		/>
	<path class="st0" d="M7.4,53.3c1.2,0,3-0.8,3.8-1.2c0,0,0.2-0.1,0.3-0.1c0,0.1-0.1,0.3-0.1,0.4l-0.1,0.3c0,0.1-0.2,0.2-0.4,0.2
		l-0.3,0.1c-0.2,0.2-0.6,0.9-0.8,1.3l-0.1,0.1l0.1,0.1c1.6,0.6,3.1,0.1,4.5-0.4c0.8-0.3,1.5-0.5,2.3-0.6c1-0.1,2.5-0.4,4.4-1.8
		l0.4-0.3c2.5-1.8,5.1-3.7,7.1-6c0,0,0.5-0.5,0.5-0.5c0.5-0.5,1-1,1.4-1.5c0.3-0.1,0.9-0.4,1-1.1c0,0,0.5-3,0.5-3l0.3-1.7
		c0,0,0.2-1.8,0.2-1.8c0.2-2.1,0.4-4.1,0.4-6.3c0,0-0.1-0.5-0.1-0.5c0-0.3-0.1-0.6-0.3-0.9c0-0.1,0.1-0.2,0.1-0.2l0-0.1
		c-0.2-0.3-0.6-0.2-0.8-0.1l-0.2,0.1l0,0c0,0-0.3,0.3-0.5,0.4c0,0,0,0,0-0.1c0-0.1,0-0.1,0.1-0.3l0.1-0.4c0,0,0,0,0,0
		c0-0.2,0.1-0.7,0.2-0.8c0.4-0.4,0.7-0.9,0.9-1.3c0,0,0.3-0.5,0.3-0.6c0.1,0,0.4,0.1,0.4,0.1l0.7,0.1c0.4,0,0.6-0.1,0.9-0.2l0.1,0
		c0.6-0.2,0.6-0.8,0.5-1.2c0-0.2,0-0.4,0-0.5c0,0,0.2-0.1,0.2-0.1c0.2-0.1,0.3-0.1,0.4-0.2l0.2-0.4l-0.2-0.2c0,0-0.1,0-0.2,0
		c-0.1-0.1-0.3-0.2-0.5-0.1c-0.5,0.1-0.6,0.5-0.6,0.5l-0.1,0.1l0.2,0c0,0,0,0,0,0c0,0.1-0.1,0.2-0.1,0.3c0,0.1,0,0.1,0,0.2
		c0,0.1,0,0.2,0,0.3c0,0.2,0,0.3-0.1,0.4c-0.1,0.1-0.1,0.1-0.2,0.1c-1.8,0-3.8-1.4-4.6-3.3l-0.3,0.1c0.5,1.7,1.3,2.9,2.2,3.7
		c-0.2,0.5-0.4,1-0.7,1.5c-0.5,0.9-1,1.9-1,2.9c0,0.6,0.2,1.2,0.7,1.7l0.2,0.2l0.1-0.2c0-0.1,0-0.2,0-0.3c0-0.2,0-0.3-0.1-0.5
		c0-0.2-0.1-0.3-0.1-0.4c0,0,0-0.1,0-0.1c0,0,0.1-0.4,0.2-0.6c0.2,0.4,0.5,0.8,0.9,1.1c0,0.2,0,0.3,0,0.5c0,1-0.1,2-0.2,3
		c-0.1,1-0.2,2-0.2,3v0.1l0,0.3c-0.1,1.3-0.3,2.8-0.7,4c0,0-0.3,0.8-0.3,0.8c-2.8,4.3-5.9,7.3-9.7,9.2c-1.9,0.9-4.1,1.6-5,1.9
		l-0.2,0.1c-0.8,0.2-2.3,0.7-3.5,0.8c0.1-0.3,0.3-0.6,0.3-1.1c0,0,0.1-0.3,0.1-0.3l0.1-0.4c0.2-0.4,0.8-0.6,1.3-0.8l0.6-0.2
		c1.8-0.9,4.5-2.2,6.8-3.9c0.7-0.2,1.5-0.7,2.3-1.2l0.8-0.4c0.7-0.6,1.3-1.2,1.9-1.9c0.7-1,1.1-2.3,1.4-3.6c0.4-1.5,0.8-3.1,1.9-4.1
		l-0.1-0.2c-0.7,0.2-1.2,1-1.6,1.8l-0.4,0.6c0,0-0.5,1.2-0.5,1.2l-0.3,0.7c-0.4,0.4-0.5,1-0.5,1.6c-0.1,0.6-0.2,1.2-0.7,1.7
		c-0.4,0.6-1,1-1.8,1.3c-0.9,0.8-2,1.3-3.1,1.9c-0.8,0.4-1.5,0.8-2.2,1.3c-3.2,1.8-8.8,4.8-9.1,4.9C9.3,51.9,9,52,9,52
		c-0.5,0.1-1.8,0.4-2.8,0.2c-0.8-0.2-0.9-0.5-1-0.7l-0.1-0.2c0,0-0.3-0.9-0.3-0.9c-0.3-0.8-0.6-1.5-0.6-2.4c0,0,0-0.6,0-0.6
		c0.3-1.9,1.3-3.5,2.2-5.1c0.6-1,1.2-2,1.6-3.1c0.9-1.5,1.6-3,2.4-4.5l1.9-3.6c1.6-2.2,4.4-3.7,7.1-3.6c2.2-0.3,4.2-0.9,4.9-2.9
		c0.5-1.2,1.1-2.6,1.1-4c0-0.2,0-0.4,0-0.7c0,0,0-0.1,0-0.1c0.1,0,0.4,0,0.5-0.2c0.2-0.3,0-0.5-0.1-0.6L25.6,19l-0.1,0.1
		c0,0-0.3,0.3-0.5,0.4c-0.1-0.1-0.5-0.4-0.5-0.4l0,0.3c0,0,0,0,0,0.1c-0.3,0-0.5-0.1-0.8-0.3c0,0,0,0,0,0c-0.4-0.7-0.5-1.5-0.5-2.3
		L23,15.6c-0.1-0.3-0.2-0.6-0.3-0.9c-0.2-0.4-0.3-0.7-0.3-1c0-0.2,0.1-0.5,0.3-0.7l0.5-0.5L23,12.4c-0.4-0.1-0.7,0.3-0.9,0.6
		L22,13.1c-0.3,0.5-0.1,0.9,0,1.3c0.2,0.4,0.3,0.8-0.2,1.1c-0.2,0.3-0.5,0.5-0.9,0.6c-0.5,0.1-0.8-0.2-1.1-0.5c0,0-0.1-0.2-0.1-0.2
		c-0.1-0.2-0.3-0.4-0.3-0.7c0.5-0.2,1-0.6,1.3-1l0,0l0,0c0-0.6,0.1-1.3,0.4-1.9l-0.2-0.1c-0.2,0.2-0.3,0.5-0.4,0.8
		c-0.2,0.6-0.5,1.1-1.1,1.3c-0.3,0-0.6-0.2-0.8-0.4l0,0c0.4,0.1,0.7,0,1-0.2l0,0l0,0c0.4-0.6,0.5-1.4,0.4-2.1c0-0.7,0.3-1,0.8-1.4
		c0.4-0.4,1-0.2,1.2,0c0.4,0.4,0.9,1,0.9,1.6c0,0.1,0,0.7,0.4,0.8c0,0,0.3,0.1,0.3,0.1l0-0.1c0.5-1.7,1.5-3.2,3-4.5
		c2.2-1.5,5.1-1.5,8.7-0.1c-2.9,0.3-5.2,1.3-7,2.9c-0.5,0.4-1,0.9-1.5,1.5c-0.6,0.6-1.4,1.4-1.7,1.4c-0.2,0-0.3,0-0.3,0v-0.1
		c0.1-0.5,0.2-0.8,0.5-0.9l0.1,0l0-0.1l0,0c0,0,0.1-0.2-0.1-0.3l-0.1-0.1L24.9,12c-0.3,0.3-0.7,0.6-0.7,1.1c0.3,0.7,0.9,1,1.6,0.8
		c1-0.6,1.8-1.3,2.5-2.1c1-1,2-2,3.4-2.5c0.9-0.6,2-0.8,3-1.1c0.8-0.2,1.7-0.4,2.5-0.8l0.1,0l0.1-0.5l-0.3,0.2
		c-0.3,0.2-0.6,0.2-0.9,0.2c0,0-0.2,0-0.3,0c0,0,0-0.1,0-0.1c0-0.1,0-0.1,0-0.2c0-0.1,0-0.2-0.1-0.3c-1.4-0.9-3.1-1.2-4.2-1.4
		c-1.5,0-6.4,0.2-7.9,3.9l0-0.1l-0.2,0.3c0,0,0,0.1,0,0.2c0,0,0,0-0.1,0c-0.3-0.5-0.7-1.1-1.6-1.2c-1.1-0.2-1.8,0.1-2.2,0.9
		c-0.4,0.9-0.8,1.9-0.8,3c0,0.1-0.1,0.1-0.3,0.2c0,0-0.1,0-0.2,0.1c-0.2,0-0.3-0.2-0.4-0.5l-0.3-0.6l-0.1,0.4
		c-0.1,0.4,0.1,0.7,0.3,0.9c-0.1,0-0.1,0.1-0.1,0.2c0,0,0,0.1,0,0.1c0,0.5,0.3,1,0.7,1.4l0,0c0,0,0,0,0,0c0,0,0,0,0,0.1
		c0,0.9,0.6,1.8,1.3,2.3l0,0l0.2,0c0.5,0.1,1.1,0.2,1.7-0.2c0.1-0.1,0.2-0.2,0.3-0.3c0.1-0.1,0.1-0.1,0.2-0.2c0,0,0,0,0,0.1
		c0,0.3-0.1,0.6-0.1,0.9c-0.1,0.3-0.1,0.6-0.1,1c0,0.3,0.1,0.7,0.3,1c0.5,0.7,1.3,1,2.1,1c0,0,0,0,0,0c0,0,0.1,0.2,0.1,0.3
		c0,0.1-0.3,1.4-0.3,1.4c-0.2,1-0.4,1.9-0.9,2.6c-0.5,0.8-1.1,1.7-2.1,1.9c-0.6,0-1.2,0.1-1.8,0.1c-0.8,0.1-1.5,0.2-2.1,0.1
		c-0.7-0.1-1-0.2-1.5-0.4l-0.2-0.1c-0.4-0.2-1.1-0.9-1.8-1.7c-0.8-0.9-1.7-1.9-2.7-2.6l0.6-0.5c0.6-0.5,1.3-1.1,2.3-1
		c1.2,0.1,1.7,1.2,2.1,2.1c0,0,0.1,0.2,0.1,0.2l0.1,0.4c0.3,1.1,1.1,2,2.4,2.9c0.3,0.2,0.6,0.3,0.9,0.3c0.1,0,0.2,0,0.4,0l0,0l0,0
		c0.1-0.1,0.1-0.1,0.1-0.2c0-0.1,0-0.1-0.1-0.2l0,0l0,0c-0.2-0.2-0.4-0.3-0.5-0.4c0,0-0.2-0.1-0.2-0.1c0,0-0.6-0.6-0.6-0.6
		c-0.5-0.5-1-1-1.2-1.6c-0.3-1-1.4-3.5-3.7-3.6c-1.4-0.1-2.7,1.1-3.2,2.3l0,0c-0.6-0.4-1.1-0.7-1.7-0.8c-1.5-0.2-3,0.6-4.1,2.2
		c0,0-0.9,1.5-0.9,1.5c-1.5,3.3-2.5,6.3-3.2,9.2c-0.2,0.9-0.3,1.9-0.5,2.9L0.1,38l0,2.1c-0.1,1.3-0.1,2.7,0.1,4
		c0.1,2.1,1.2,4.2,2.8,5.2c0,0,0.2,0.1,0.3,0.1c0.1,0,0.1-0.1,0.1-0.2c0.1,0.2,0.1,0.4,0.2,0.6c0.5,1.2,1.4,2.5,1.9,3
		c0.5,0.5,1.2,0.5,1.8,0.5L7.4,53.3z M3.2,48c0,0.3,0,0.6,0.1,0.9c-0.1-0.1-0.2-0.2-0.3-0.2c-0.7-0.4-1.7-2.4-1.8-3.8
		c0-0.8-0.1-1.6-0.1-2.3c0-4.9,0.8-9.7,2.3-13.4c0,0,0.6-1.5,0.6-1.5l0.1-0.4c0,0,0.7-1.4,0.7-1.4C5.4,24.4,6,23,7.3,22.3
		c1.1-0.4,2.1,0.2,2.9,0.7c0,0,0.8,0.7,0.8,0.7l0.3,0.3c1.4,1.7,2.9,2.7,4.4,3c-2.9,1.3-4.9,3.7-6.2,7.1C8.8,35.9,8,37.5,7.1,39
		l-2,3.9c0,0-0.3,0.5-0.3,0.5C4.1,44.8,3.2,46.4,3.2,48z"/>
	<path class="st0" d="M30.2,12.4l0.4-0.4c1-0.7,2.2-1,3.4-0.7l0.1-0.3c0,0,0,0,0,0h0c-1.2-0.5-2.7-0.5-4,0.1l0,0
		c-0.7,0.4-1.2,1-1.3,1.9l0,0.1l0.1,0C29.5,13.3,29.9,12.8,30.2,12.4z"/>
</g>
</svg>
