<?xml version="1.0" encoding="UTF-8" standalone="no"?>
<!DOCTYPE svg PUBLIC "-//W3C//DTD SVG 1.1//EN" "http://www.w3.org/Graphics/SVG/1.1/DTD/svg11.dtd">
<svg width="100%" height="100%" viewBox="0 0 489 233" version="1.1" xmlns="http://www.w3.org/2000/svg" xmlns:xlink="http://www.w3.org/1999/xlink" xml:space="preserve" xmlns:serif="http://www.serif.com/" style="fill-rule:evenodd;clip-rule:evenodd;stroke-linejoin:round;stroke-miterlimit:2;">
    <g transform="matrix(0.639303,0,0,0.639303,-116.42,-100.322)">
        <g id="Artboard1">
            <g>
                <g transform="matrix(235.391,0,0,235.391,180.405,329.939)">
                    <path d="M0.069,-0.714L0.069,0L0.216,0L0.216,-0.501L0.218,-0.501L0.393,0L0.514,0L0.689,-0.506L0.691,-0.506L0.691,0L0.838,0L0.838,-0.714L0.617,-0.714L0.459,-0.223L0.457,-0.223L0.29,-0.714L0.069,-0.714Z" style="fill:white;fill-rule:nonzero;"/>
                </g>
                <g transform="matrix(235.391,0,0,235.391,370.601,329.939)">
                    <path d="M0.539,0L0.539,-0.517L0.397,-0.517L0.397,-0.246C0.397,-0.193 0.388,-0.156 0.371,-0.133C0.354,-0.11 0.326,-0.098 0.287,-0.098C0.253,-0.098 0.229,-0.109 0.216,-0.13C0.203,-0.151 0.196,-0.182 0.196,-0.225L0.196,-0.517L0.054,-0.517L0.054,-0.199C0.054,-0.167 0.057,-0.138 0.063,-0.112C0.068,-0.085 0.078,-0.063 0.092,-0.045C0.106,-0.026 0.125,-0.012 0.15,-0.002C0.174,0.008 0.205,0.013 0.243,0.013C0.273,0.013 0.302,0.006 0.331,-0.007C0.36,-0.02 0.383,-0.042 0.401,-0.072L0.404,-0.072L0.404,0L0.539,0Z" style="fill:white;fill-rule:nonzero;"/>
                </g>
                <g transform="matrix(235.391,0,0,235.391,493.946,329.939)">
                    <path d="M0.406,-0.335L0.545,-0.335C0.543,-0.368 0.535,-0.397 0.521,-0.422C0.507,-0.446 0.489,-0.466 0.467,-0.483C0.444,-0.499 0.419,-0.511 0.391,-0.519C0.362,-0.527 0.333,-0.531 0.302,-0.531C0.26,-0.531 0.223,-0.524 0.19,-0.51C0.157,-0.496 0.13,-0.476 0.107,-0.452C0.084,-0.427 0.067,-0.397 0.056,-0.363C0.044,-0.328 0.038,-0.291 0.038,-0.251C0.038,-0.212 0.044,-0.177 0.057,-0.145C0.07,-0.112 0.087,-0.084 0.11,-0.061C0.133,-0.038 0.16,-0.02 0.193,-0.007C0.225,0.007 0.26,0.013 0.299,0.013C0.368,0.013 0.424,-0.005 0.468,-0.041C0.512,-0.077 0.539,-0.129 0.548,-0.198L0.411,-0.198C0.406,-0.166 0.395,-0.14 0.377,-0.122C0.358,-0.102 0.332,-0.093 0.298,-0.093C0.276,-0.093 0.257,-0.098 0.242,-0.108C0.227,-0.118 0.215,-0.131 0.206,-0.147C0.197,-0.162 0.19,-0.18 0.186,-0.199C0.182,-0.218 0.18,-0.237 0.18,-0.256C0.18,-0.275 0.182,-0.295 0.186,-0.315C0.19,-0.334 0.197,-0.352 0.207,-0.369C0.216,-0.385 0.229,-0.398 0.244,-0.409C0.259,-0.419 0.278,-0.424 0.301,-0.424C0.362,-0.424 0.397,-0.394 0.406,-0.335Z" style="fill:white;fill-rule:nonzero;"/>
                </g>
                <g transform="matrix(235.391,0,0,235.391,610.465,329.939)">
                    <path d="M0.067,-0.714L0.067,0L0.209,0L0.209,-0.178L0.264,-0.231L0.406,0L0.578,0L0.361,-0.327L0.556,-0.517L0.388,-0.517L0.209,-0.331L0.209,-0.714L0.067,-0.714Z" style="fill:white;fill-rule:nonzero;"/>
                </g>
                <g transform="matrix(235.391,0,0,235.391,738.753,329.939)">
                    <rect x="0.058" y="-0.714" width="0.142" height="0.714" style="fill:white;fill-rule:nonzero;"/>
                </g>
                <g transform="matrix(235.391,0,0,235.391,783.242,329.939)">
                    <path d="M0.402,-0.314L0.171,-0.314C0.172,-0.324 0.174,-0.335 0.178,-0.348C0.181,-0.361 0.188,-0.373 0.197,-0.384C0.206,-0.395 0.218,-0.405 0.233,-0.413C0.248,-0.42 0.266,-0.424 0.289,-0.424C0.324,-0.424 0.349,-0.415 0.367,-0.396C0.384,-0.377 0.395,-0.35 0.402,-0.314ZM0.171,-0.224L0.544,-0.224C0.547,-0.264 0.543,-0.302 0.534,-0.339C0.525,-0.376 0.509,-0.408 0.489,-0.437C0.468,-0.466 0.441,-0.489 0.408,-0.506C0.375,-0.523 0.337,-0.531 0.293,-0.531C0.254,-0.531 0.218,-0.524 0.186,-0.51C0.153,-0.496 0.125,-0.477 0.102,-0.453C0.079,-0.428 0.061,-0.399 0.048,-0.366C0.035,-0.333 0.029,-0.297 0.029,-0.258C0.029,-0.218 0.035,-0.181 0.048,-0.148C0.06,-0.115 0.077,-0.086 0.1,-0.062C0.123,-0.038 0.15,-0.02 0.183,-0.007C0.216,0.007 0.252,0.013 0.293,0.013C0.352,0.013 0.402,0 0.443,-0.027C0.484,-0.054 0.515,-0.098 0.535,-0.16L0.41,-0.16C0.405,-0.144 0.393,-0.129 0.372,-0.115C0.351,-0.1 0.327,-0.093 0.298,-0.093C0.258,-0.093 0.227,-0.103 0.206,-0.124C0.185,-0.145 0.173,-0.178 0.171,-0.224Z" style="fill:white;fill-rule:nonzero;"/>
                </g>
                <g transform="matrix(235.391,0,0,235.391,180.405,513.108)">
                    <path d="M0.176,-0.237L0.024,-0.237C0.023,-0.193 0.031,-0.155 0.048,-0.123C0.065,-0.091 0.087,-0.065 0.116,-0.044C0.144,-0.023 0.177,-0.008 0.214,0.002C0.251,0.011 0.289,0.016 0.328,0.016C0.377,0.016 0.42,0.01 0.457,-0.001C0.494,-0.012 0.525,-0.028 0.55,-0.049C0.575,-0.069 0.593,-0.093 0.606,-0.121C0.619,-0.149 0.625,-0.179 0.625,-0.212C0.625,-0.252 0.616,-0.285 0.6,-0.311C0.583,-0.336 0.562,-0.357 0.539,-0.372C0.516,-0.387 0.492,-0.399 0.469,-0.406C0.445,-0.413 0.426,-0.417 0.413,-0.42C0.368,-0.431 0.332,-0.441 0.305,-0.448C0.277,-0.455 0.255,-0.463 0.24,-0.47C0.224,-0.477 0.213,-0.485 0.208,-0.494C0.203,-0.503 0.2,-0.514 0.2,-0.528C0.2,-0.543 0.203,-0.556 0.21,-0.566C0.217,-0.576 0.225,-0.584 0.236,-0.591C0.246,-0.598 0.257,-0.602 0.27,-0.605C0.283,-0.608 0.295,-0.609 0.308,-0.609C0.327,-0.609 0.345,-0.607 0.362,-0.604C0.378,-0.601 0.392,-0.595 0.405,-0.587C0.418,-0.579 0.428,-0.568 0.436,-0.554C0.443,-0.54 0.448,-0.522 0.449,-0.501L0.601,-0.501C0.601,-0.542 0.593,-0.578 0.578,-0.607C0.562,-0.636 0.541,-0.659 0.514,-0.678C0.487,-0.697 0.457,-0.71 0.423,-0.719C0.388,-0.727 0.352,-0.731 0.315,-0.731C0.283,-0.731 0.251,-0.727 0.219,-0.718C0.187,-0.709 0.158,-0.696 0.133,-0.678C0.108,-0.66 0.087,-0.638 0.072,-0.611C0.056,-0.584 0.048,-0.552 0.048,-0.515C0.048,-0.482 0.054,-0.455 0.067,-0.432C0.079,-0.409 0.095,-0.389 0.115,-0.374C0.135,-0.359 0.158,-0.346 0.183,-0.337C0.208,-0.327 0.234,-0.319 0.261,-0.312C0.287,-0.305 0.313,-0.298 0.338,-0.292C0.363,-0.286 0.386,-0.279 0.406,-0.271C0.426,-0.263 0.442,-0.253 0.455,-0.241C0.467,-0.229 0.473,-0.213 0.473,-0.194C0.473,-0.176 0.468,-0.161 0.459,-0.15C0.45,-0.138 0.438,-0.129 0.424,-0.122C0.41,-0.115 0.395,-0.111 0.379,-0.109C0.363,-0.106 0.348,-0.105 0.334,-0.105C0.313,-0.105 0.293,-0.108 0.274,-0.113C0.255,-0.117 0.238,-0.125 0.224,-0.136C0.209,-0.146 0.198,-0.159 0.189,-0.176C0.18,-0.193 0.176,-0.213 0.176,-0.237Z" style="fill:white;fill-rule:nonzero;"/>
                </g>
                <g transform="matrix(235.391,0,0,235.391,325.877,513.108)">
                    <path d="M0.234,-0.517L0.234,-0.672L0.092,-0.672L0.092,-0.517L0.006,-0.517L0.006,-0.422L0.092,-0.422L0.092,-0.117C0.092,-0.091 0.096,-0.07 0.105,-0.054C0.114,-0.038 0.126,-0.026 0.141,-0.017C0.156,-0.008 0.173,-0.003 0.193,0.001C0.212,0.004 0.233,0.005 0.255,0.005C0.269,0.005 0.283,0.005 0.298,0.004C0.313,0.003 0.326,0.002 0.338,0L0.338,-0.11C0.331,-0.109 0.324,-0.108 0.317,-0.107C0.31,-0.106 0.302,-0.106 0.294,-0.106C0.27,-0.106 0.254,-0.11 0.246,-0.118C0.238,-0.126 0.234,-0.142 0.234,-0.166L0.234,-0.422L0.338,-0.422L0.338,-0.517L0.234,-0.517Z" style="fill:white;fill-rule:nonzero;"/>
                </g>
                <g transform="matrix(235.391,0,0,235.391,399.083,513.108)">
                    <path d="M0.539,0L0.539,-0.517L0.397,-0.517L0.397,-0.246C0.397,-0.193 0.388,-0.156 0.371,-0.133C0.354,-0.11 0.326,-0.098 0.287,-0.098C0.253,-0.098 0.229,-0.109 0.216,-0.13C0.203,-0.151 0.196,-0.182 0.196,-0.225L0.196,-0.517L0.054,-0.517L0.054,-0.199C0.054,-0.167 0.057,-0.138 0.063,-0.112C0.068,-0.085 0.078,-0.063 0.092,-0.045C0.106,-0.026 0.125,-0.012 0.15,-0.002C0.174,0.008 0.205,0.013 0.243,0.013C0.273,0.013 0.302,0.006 0.331,-0.007C0.36,-0.02 0.383,-0.042 0.401,-0.072L0.404,-0.072L0.404,0L0.539,0Z" style="fill:white;fill-rule:nonzero;"/>
                </g>
                <g transform="matrix(235.391,0,0,235.391,524.311,513.108)">
                    <path d="M0.421,-0.26C0.421,-0.239 0.419,-0.218 0.415,-0.198C0.411,-0.178 0.404,-0.16 0.395,-0.145C0.386,-0.129 0.373,-0.116 0.358,-0.107C0.342,-0.098 0.322,-0.093 0.299,-0.093C0.277,-0.093 0.258,-0.098 0.243,-0.108C0.227,-0.117 0.214,-0.13 0.204,-0.146C0.193,-0.161 0.186,-0.179 0.181,-0.199C0.176,-0.219 0.174,-0.239 0.174,-0.259C0.174,-0.28 0.176,-0.301 0.181,-0.321C0.185,-0.34 0.192,-0.358 0.202,-0.373C0.211,-0.388 0.224,-0.401 0.24,-0.41C0.256,-0.419 0.276,-0.424 0.299,-0.424C0.322,-0.424 0.342,-0.419 0.357,-0.41C0.372,-0.401 0.385,-0.389 0.395,-0.374C0.404,-0.359 0.411,-0.341 0.415,-0.322C0.419,-0.302 0.421,-0.281 0.421,-0.26ZM0.423,-0.066L0.423,0L0.558,0L0.558,-0.714L0.416,-0.714L0.416,-0.454L0.414,-0.454C0.398,-0.479 0.376,-0.499 0.349,-0.512C0.321,-0.525 0.292,-0.531 0.261,-0.531C0.223,-0.531 0.19,-0.524 0.161,-0.509C0.132,-0.494 0.109,-0.474 0.09,-0.449C0.07,-0.424 0.056,-0.396 0.047,-0.364C0.037,-0.331 0.032,-0.298 0.032,-0.263C0.032,-0.227 0.037,-0.192 0.047,-0.159C0.056,-0.126 0.07,-0.096 0.09,-0.071C0.109,-0.045 0.133,-0.024 0.162,-0.01C0.191,0.006 0.225,0.013 0.264,0.013C0.298,0.013 0.329,0.007 0.356,-0.006C0.383,-0.018 0.404,-0.038 0.421,-0.066L0.423,-0.066Z" style="fill:white;fill-rule:nonzero;"/>
                </g>
                <g transform="matrix(235.391,0,0,235.391,649.069,513.108)">
                    <path d="M0.2,-0.597L0.2,-0.714L0.058,-0.714L0.058,-0.597L0.2,-0.597ZM0.058,-0.517L0.058,0L0.2,0L0.2,-0.517L0.058,-0.517Z" style="fill:white;fill-rule:nonzero;"/>
                </g>
                <g transform="matrix(235.391,0,0,235.391,693.087,513.108)">
                    <path d="M0.18,-0.258C0.18,-0.279 0.182,-0.299 0.186,-0.319C0.19,-0.339 0.197,-0.357 0.207,-0.372C0.216,-0.387 0.229,-0.4 0.245,-0.41C0.261,-0.419 0.281,-0.424 0.305,-0.424C0.329,-0.424 0.349,-0.419 0.366,-0.41C0.382,-0.4 0.395,-0.387 0.405,-0.372C0.414,-0.357 0.421,-0.339 0.425,-0.319C0.429,-0.299 0.431,-0.279 0.431,-0.258C0.431,-0.237 0.429,-0.217 0.425,-0.198C0.421,-0.178 0.414,-0.16 0.405,-0.145C0.395,-0.129 0.382,-0.116 0.366,-0.107C0.349,-0.098 0.329,-0.093 0.305,-0.093C0.281,-0.093 0.261,-0.098 0.245,-0.107C0.229,-0.116 0.216,-0.129 0.207,-0.145C0.197,-0.16 0.19,-0.178 0.186,-0.198C0.182,-0.217 0.18,-0.237 0.18,-0.258ZM0.038,-0.258C0.038,-0.217 0.044,-0.179 0.057,-0.146C0.07,-0.113 0.088,-0.084 0.111,-0.061C0.134,-0.037 0.162,-0.019 0.195,-0.006C0.228,0.007 0.264,0.013 0.305,0.013C0.346,0.013 0.383,0.007 0.416,-0.006C0.449,-0.019 0.477,-0.037 0.5,-0.061C0.523,-0.084 0.541,-0.113 0.554,-0.146C0.567,-0.179 0.573,-0.217 0.573,-0.258C0.573,-0.299 0.567,-0.337 0.554,-0.371C0.541,-0.404 0.523,-0.433 0.5,-0.457C0.477,-0.48 0.449,-0.499 0.416,-0.512C0.383,-0.525 0.346,-0.531 0.305,-0.531C0.264,-0.531 0.228,-0.525 0.195,-0.512C0.162,-0.499 0.134,-0.48 0.111,-0.457C0.088,-0.433 0.07,-0.404 0.057,-0.371C0.044,-0.337 0.038,-0.299 0.038,-0.258Z" style="fill:white;fill-rule:nonzero;"/>
                </g>
                <g transform="matrix(235.391,0,0,235.391,822.552,513.108)">
                    <path d="M0.164,-0.168L0.029,-0.168C0.03,-0.133 0.038,-0.105 0.053,-0.082C0.067,-0.058 0.085,-0.04 0.108,-0.026C0.13,-0.012 0.155,-0.002 0.184,0.004C0.213,0.01 0.242,0.013 0.272,0.013C0.301,0.013 0.33,0.01 0.359,0.005C0.387,-0.001 0.412,-0.011 0.434,-0.025C0.456,-0.039 0.474,-0.057 0.488,-0.081C0.501,-0.103 0.508,-0.132 0.508,-0.166C0.508,-0.19 0.503,-0.21 0.494,-0.227C0.485,-0.243 0.472,-0.257 0.457,-0.268C0.442,-0.279 0.424,-0.287 0.405,-0.294C0.385,-0.301 0.365,-0.306 0.344,-0.311C0.324,-0.316 0.304,-0.32 0.285,-0.324C0.266,-0.328 0.249,-0.333 0.234,-0.338C0.219,-0.343 0.206,-0.349 0.197,-0.357C0.188,-0.365 0.183,-0.375 0.183,-0.388C0.183,-0.399 0.186,-0.407 0.191,-0.414C0.196,-0.42 0.203,-0.425 0.211,-0.428C0.218,-0.431 0.227,-0.434 0.236,-0.435C0.245,-0.436 0.254,-0.436 0.262,-0.436C0.287,-0.436 0.309,-0.431 0.328,-0.422C0.347,-0.412 0.357,-0.393 0.359,-0.366L0.494,-0.366C0.491,-0.398 0.483,-0.425 0.47,-0.446C0.456,-0.467 0.439,-0.483 0.418,-0.496C0.397,-0.509 0.374,-0.518 0.348,-0.523C0.321,-0.528 0.294,-0.531 0.266,-0.531C0.238,-0.531 0.211,-0.529 0.184,-0.524C0.157,-0.519 0.133,-0.51 0.112,-0.498C0.091,-0.485 0.074,-0.468 0.061,-0.447C0.048,-0.426 0.041,-0.398 0.041,-0.365C0.041,-0.342 0.046,-0.323 0.055,-0.308C0.064,-0.292 0.077,-0.279 0.092,-0.269C0.107,-0.258 0.125,-0.25 0.145,-0.244C0.164,-0.237 0.184,-0.232 0.205,-0.227C0.256,-0.216 0.295,-0.206 0.324,-0.195C0.352,-0.184 0.366,-0.168 0.366,-0.147C0.366,-0.134 0.363,-0.124 0.357,-0.116C0.351,-0.107 0.343,-0.1 0.335,-0.096C0.326,-0.09 0.316,-0.087 0.305,-0.085C0.294,-0.082 0.283,-0.081 0.273,-0.081C0.259,-0.081 0.246,-0.083 0.233,-0.086C0.22,-0.089 0.208,-0.094 0.198,-0.102C0.188,-0.109 0.18,-0.118 0.174,-0.129C0.167,-0.139 0.164,-0.153 0.164,-0.168Z" style="fill:white;fill-rule:nonzero;"/>
                </g>
            </g>
        </g>
    </g>
</svg>
